<svg xmlns="http://www.w3.org/2000/svg" viewBox="0 0 100 100" role="img" aria-label="Mandalorian armored leader">
  <path d="M18 89c4-18 18-28 32-28s28 10 32 28H18Z" fill="#25313b"/>
  <path d="M27 86c3-12 12-19 23-19s20 7 23 19H27Z" fill="#7c8790" stroke="#2f8ecf" stroke-width="3"/>
  <path d="M21 36 35 13h30l14 23-8 34H29L21 36Z" fill="#b8c5d0" stroke="#2f8ecf" stroke-width="4" stroke-linejoin="round"/>
  <path d="M33 39h34l-7 15H40l-7-15Z" fill="#0d141d"/>
  <path d="M48 18h4v51h-4Z" fill="#24313b"/>
  <path d="M30 35 17 28M70 35l13-7" stroke="#5d6872" stroke-width="5" stroke-linecap="round"/>
  <path d="M41 76h18" stroke="#c99a2e" stroke-width="6" stroke-linecap="round"/>
</svg>
