<svg xmlns="http://www.w3.org/2000/svg" viewBox="0 0 100 100" role="img" aria-label="Dark force adept">
  <path d="M16 89c5-18 18-29 34-29s29 11 34 29H16Z" fill="#130f16"/>
  <path d="M25 87c4-13 14-21 25-21s21 8 25 21H25Z" fill="#302235" stroke="#c0392b" stroke-width="3"/>
  <path d="M29 34c4-18 38-18 42 0l-7 34H36L29 34Z" fill="#161217" stroke="#c0392b" stroke-width="4"/>
  <path d="M38 39h24l-5 12H43l-5-12Z" fill="#7e1015"/>
  <path d="M23 25 14 8M50 19V5M77 25l9-17" stroke="#c0392b" stroke-width="6" stroke-linecap="round"/>
  <path d="M40 76h20" stroke="#c0392b" stroke-width="6" stroke-linecap="round"/>
</svg>
